<svg xmlns="http://www.w3.org/2000/svg" xmlns:xlink="http://www.w3.org/1999/xlink" fill="none" version="1.1" width="1600" height="900" viewBox="0 0 1600 900"><defs><clipPath id="master_svg0_129_627"><rect x="0" y="0" width="1600" height="900" rx="0"/></clipPath><filter id="master_svg1_129_635" filterUnits="objectBoundingBox" color-interpolation-filters="sRGB" x="-1.9081059695348337" y="-0.36699986560063513" width="4.816211939069667" height="1.7339997312012703"><feFlood flood-opacity="0" result="BackgroundImageFix"/><feBlend mode="normal" in="SourceGraphic" in2="BackgroundImageFix" result="shape"/><feGaussianBlur stdDeviation="183.5" result="effect1_foregroundBlur"/></filter><filter id="master_svg2_129_676" filterUnits="objectBoundingBox" color-interpolation-filters="sRGB" x="-1.9081052126517173" y="-0.36699970880150057" width="4.816210425303434" height="1.7339994176030011"><feFlood flood-opacity="0" result="BackgroundImageFix"/><feBlend mode="normal" in="SourceGraphic" in2="BackgroundImageFix" result="shape"/><feGaussianBlur stdDeviation="183.5" result="effect1_foregroundBlur"/></filter><linearGradient x1="800.9653625488281" y1="573.0000152587891" x2="800.9653625488281" y2="659.9318389892578" gradientUnits="userSpaceOnUse" id="master_svg3_129_648"><stop offset="30.164113640785217%" stop-color="#FFFFFF" stop-opacity="1"/><stop offset="100%" stop-color="#FFFFFF" stop-opacity="0"/></linearGradient><clipPath id="master_svg4_129_684"><rect x="716" y="280" width="170" height="170" rx="85"/></clipPath><filter id="master_svg5_129_688" filterUnits="objectBoundingBox" color-interpolation-filters="sRGB" x="0" y="0" width="1" height="1"><feFlood flood-opacity="0" result="BackgroundImageFix"/><feBlend mode="normal" in="SourceGraphic" in2="BackgroundImageFix" result="shape"/><feGaussianBlur in="BackgroundImageFix" stdDeviation="5"/><feComposite in2="SourceAlpha" operator="in" result="effect1_foregroundBlur"/><feBlend mode="normal" in="SourceGraphic" in2="effect1_foregroundBlur" result="shape"/></filter><mask id="master_svg6_129_690" style="mask-type:alpha" maskUnits="objectBoundingBox"><g><g><rect x="716" y="280" width="170" height="170" rx="50" fill="#000000" fill-opacity="1" style="mix-blend-mode:passthrough"/></g></g></mask><mask id="master_svg7_129_699" style="mask-type:alpha" maskUnits="objectBoundingBox"><g><g><rect x="746.60009765625" y="310.60009765625" width="108.80000305175781" height="108.80000305175781" rx="0" fill="#000000" fill-opacity="1" style="mix-blend-mode:passthrough"/></g></g></mask><mask id="master_svg8_129_703" style="mask-type:alpha" maskUnits="objectBoundingBox"><g><g><rect x="748.2998046875" y="313.14990234375" width="108.80000305175781" height="108.80000305175781" rx="0" fill="#000000" fill-opacity="1" style="mix-blend-mode:passthrough"/></g></g></mask></defs><g clip-path="url(#master_svg0_129_627)"><rect x="0" y="0" width="1600" height="900" rx="0" fill="#000000" fill-opacity="1"/><g transform="matrix(0.8910068869590759,-0.45399072766304016,0.45399072766304016,0.8910068869590759,95.67520750226686,-138.20731121127028)" filter="url(#master_svg1_129_635)"><ellipse cx="-47.66267395019531" cy="731.6390380859375" rx="192.3373260498047" ry="1000.0003662109375" fill="#5DCB7E" fill-opacity="0.4000000059604645"/></g><g transform="matrix(0.8910068869590759,-0.45399072766304016,0.45399072766304016,0.8910068869590759,238.658132083925,241.36135559791728)" filter="url(#master_svg2_129_676)"><ellipse cx="814.337158203125" cy="623.6397094726562" rx="192.33740234375" ry="1000.0007934570312" fill="#5DCB7E" fill-opacity="0.4000000059604645"/></g><g><g><path d="M614.6320000000001,535.875294921875L603.544,535.875294921875L591.592,514.275294921875L591.088,514.275294921875L581.8720000000001,514.275294921875L581.8720000000001,535.875294921875L572.3679999999999,535.875294921875L572.3679999999999,479.499294921875L590.3679999999999,479.499294921875Q600.664,479.499294921875,606.352,484.143294921875Q612.04,488.787294921875,612.04,496.99529492187503Q612.04,502.755294921875,609.196,506.823294921875Q606.352,510.891294921875,601.024,512.7632949218751L614.6320000000001,535.875294921875ZM581.8720000000001,505.491294921875L589.216,505.491294921875Q595.48,505.491294921875,598.864,503.295294921875Q602.248,501.099294921875,602.248,496.99529492187503Q602.248,492.819294921875,598.864,490.551294921875Q595.48,488.283294921875,589.216,488.283294921875L581.8720000000001,488.283294921875L581.8720000000001,505.491294921875ZM654.304,512.403294921875Q654.304,516.003294921875,653.5840000000001,518.8112949218751L626.5840000000001,518.8112949218751Q627.16,523.635294921875,629.8240000000001,526.335294921875Q632.488,529.035294921875,636.952,529.035294921875Q639.76,529.035294921875,642.1,527.559294921875Q644.44,526.083294921875,645.952,523.347294921875L653.3679999999999,527.163294921875Q651.064,531.771294921875,646.888,534.327294921875Q642.712,536.883294921875,636.952,536.883294921875Q630.904,536.883294921875,626.404,534.327294921875Q621.904,531.771294921875,619.492,526.983294921875Q617.08,522.195294921875,617.08,515.787294921875Q617.08,509.235294921875,619.42,504.375294921875Q621.76,499.515294921875,626.08,496.88729492187497Q630.4,494.259294921875,636.232,494.259294921875Q641.704,494.259294921875,645.808,496.491294921875Q649.912,498.723294921875,652.108,502.827294921875Q654.304,506.931294921875,654.304,512.403294921875ZM644.944,511.035294921875Q644.944,506.931294921875,642.568,504.483294921875Q640.192,502.035294921875,636.232,502.035294921875Q632.488,502.035294921875,630.112,504.375294921875Q627.736,506.715294921875,626.8720000000001,511.035294921875L644.944,511.035294921875ZM672.664,536.883294921875Q667.048,536.883294921875,663.556,533.787294921875Q660.064,530.6912949218749,660.064,525.363294921875Q660.064,518.883294921875,665.284,515.283294921875Q670.504,511.683294921875,679.792,511.683294921875L684.4,511.683294921875L684.4,509.667294921875Q684.4,506.139294921875,682.348,504.123294921875Q680.296,502.107294921875,676.768,502.107294921875Q672.16,502.107294921875,667.84,506.427294921875L662.08,501.38729492187497Q668.4159999999999,494.259294921875,677.704,494.259294921875Q684.976,494.259294921875,689.296,498.291294921875Q693.616,502.323294921875,693.616,509.091294921875L693.616,535.875294921875L684.4,535.875294921875L684.4,530.6912949218749L683.968,530.6912949218749Q682.528,533.6432949218749,679.468,535.2632949218751Q676.408,536.883294921875,672.664,536.883294921875ZM675.184,529.107294921875Q678.712,529.107294921875,681.556,527.055294921875Q684.4,525.003294921875,684.4,521.331294921875L684.4,519.459294921875L680.944,519.459294921875Q675.112,519.459294921875,672.268,520.755294921875Q669.424,522.051294921875,669.424,524.787294921875Q669.424,526.731294921875,670.972,527.919294921875Q672.52,529.107294921875,675.184,529.107294921875ZM702.544,479.499294921875L711.688,479.499294921875L711.688,524.8592949218751Q711.688,527.5952949218749,714.424,527.5952949218749L716.44,527.5952949218749L716.44,536.235294921875L711.832,536.235294921875Q707.296,536.235294921875,704.9200000000001,534.039294921875Q702.544,531.843294921875,702.544,527.667294921875L702.544,479.499294921875ZM745.672,503.907294921875L734.5840000000001,503.907294921875L734.5840000000001,522.699294921875Q734.5840000000001,525.363294921875,736.06,526.839294921875Q737.5360000000001,528.315294921875,740.2719999999999,528.315294921875Q742.576,528.315294921875,744.808,527.5952949218749L744.808,536.163294921875Q741.784,537.171294921875,738.184,537.171294921875Q731.992,537.171294921875,728.716,533.715294921875Q725.44,530.259294921875,725.44,523.851294921875L725.44,503.907294921875L719.104,503.907294921875L719.104,495.267294921875L725.44,495.267294921875L725.44,483.171294921875L734.5840000000001,483.171294921875L734.5840000000001,495.267294921875L745.672,495.267294921875L745.672,503.907294921875ZM762.808,482.523294921875Q762.808,485.187294921875,761.26,486.699294921875Q759.712,488.211294921875,757.048,488.211294921875Q754.456,488.211294921875,752.98,486.699294921875Q751.504,485.187294921875,751.504,482.523294921875Q751.504,479.931294921875,752.98,478.383294921875Q754.456,476.835294921875,757.048,476.835294921875Q759.712,476.835294921875,761.26,478.383294921875Q762.808,479.931294921875,762.808,482.523294921875ZM761.7280000000001,495.267294921875L761.7280000000001,535.875294921875L752.5840000000001,535.875294921875L752.5840000000001,495.267294921875L761.7280000000001,495.267294921875ZM771.88,535.875294921875L771.88,495.267294921875L781.024,495.267294921875L781.024,500.667294921875L781.456,500.667294921875Q783.256,497.643294921875,786.136,495.951294921875Q789.0160000000001,494.259294921875,792.472,494.259294921875Q796.144,494.259294921875,798.844,496.095294921875Q801.544,497.931294921875,802.9839999999999,501.45929492187497L803.344,501.45929492187497Q807.808,494.259294921875,816.232,494.259294921875Q822.28,494.259294921875,825.664,498.291294921875Q829.048,502.323294921875,829.048,509.595294921875L829.048,535.875294921875L819.832,535.875294921875L819.832,511.467294921875Q819.832,507.43529492187497,818.0319999999999,505.095294921875Q816.232,502.755294921875,813.136,502.755294921875Q809.392,502.755294921875,807.232,505.275294921875Q805.072,507.795294921875,805.072,512.187294921875L805.072,535.875294921875L795.856,535.875294921875L795.856,511.467294921875Q795.856,507.43529492187497,794.056,505.095294921875Q792.256,502.755294921875,789.1600000000001,502.755294921875Q785.4159999999999,502.755294921875,783.22,505.275294921875Q781.024,507.795294921875,781.024,512.187294921875L781.024,535.875294921875L771.88,535.875294921875ZM873.4,512.403294921875Q873.4,516.003294921875,872.6800000000001,518.8112949218751L845.6800000000001,518.8112949218751Q846.256,523.635294921875,848.9200000000001,526.335294921875Q851.5840000000001,529.035294921875,856.048,529.035294921875Q858.856,529.035294921875,861.196,527.559294921875Q863.5360000000001,526.083294921875,865.048,523.347294921875L872.4639999999999,527.163294921875Q870.1600000000001,531.771294921875,865.9839999999999,534.327294921875Q861.808,536.883294921875,856.048,536.883294921875Q850,536.883294921875,845.5,534.327294921875Q841,531.771294921875,838.588,526.983294921875Q836.1759999999999,522.195294921875,836.1759999999999,515.787294921875Q836.1759999999999,509.235294921875,838.5160000000001,504.375294921875Q840.856,499.515294921875,845.1759999999999,496.88729492187497Q849.496,494.259294921875,855.328,494.259294921875Q860.8,494.259294921875,864.904,496.491294921875Q869.008,498.723294921875,871.204,502.827294921875Q873.4,506.931294921875,873.4,512.403294921875ZM864.04,511.035294921875Q864.04,506.931294921875,861.664,504.483294921875Q859.288,502.035294921875,855.328,502.035294921875Q851.5840000000001,502.035294921875,849.2080000000001,504.375294921875Q846.832,506.715294921875,845.9680000000001,511.035294921875L864.04,511.035294921875Z" fill="#FFFFFF" fill-opacity="1"/><path d="" fill="#FF7DA8" fill-opacity="1"/><path d="M936.544,506.859294921875Q942.664,507.723294921875,945.94,511.071294921875Q949.216,514.419294921875,949.216,519.747294921875Q949.216,527.523294921875,943.312,531.699294921875Q937.408,535.875294921875,926.392,535.875294921875L907.312,535.875294921875L907.312,479.499294921875L926.0319999999999,479.499294921875Q935.896,479.499294921875,941.2239999999999,483.279294921875Q946.552,487.059294921875,946.552,494.04329492187503Q946.552,498.723294921875,943.96,501.891294921875Q941.3679999999999,505.059294921875,936.544,506.427294921875L936.544,506.859294921875ZM916.816,488.283294921875L916.816,502.467294921875L924.88,502.467294921875Q930.568,502.467294921875,933.6279999999999,500.523294921875Q936.688,498.579294921875,936.688,494.979294921875Q936.688,491.739294921875,933.6279999999999,490.011294921875Q930.568,488.283294921875,924.88,488.283294921875L916.816,488.283294921875ZM925.168,527.163294921875Q932.008,527.163294921875,935.716,525.003294921875Q939.424,522.843294921875,939.424,518.8112949218751Q939.424,515.139294921875,935.752,513.159294921875Q932.0799999999999,511.179294921875,925.24,511.179294921875L916.816,511.179294921875L916.816,527.163294921875L925.168,527.163294921875ZM992.056,495.267294921875L992.056,535.875294921875L982.84,535.875294921875L982.84,530.475294921875L982.408,530.475294921875Q980.68,533.427294921875,977.548,535.155294921875Q974.416,536.883294921875,970.672,536.883294921875Q964.336,536.883294921875,960.7,532.887294921875Q957.064,528.891294921875,957.064,521.619294921875L957.064,495.267294921875L966.28,495.267294921875L966.28,519.675294921875Q966.28,523.635294921875,968.404,526.011294921875Q970.528,528.387294921875,973.912,528.387294921875Q977.944,528.387294921875,980.392,525.795294921875Q982.84,523.203294921875,982.84,518.955294921875L982.84,495.267294921875L992.056,495.267294921875ZM1015.816,536.883294921875Q1009.696,536.883294921875,1005.268,534.147294921875Q1000.84,531.411294921875,998.824,526.803294921875L1006.528,523.131294921875Q1007.824,525.939294921875,1010.272,527.523294921875Q1012.72,529.107294921875,1015.816,529.107294921875Q1018.912,529.107294921875,1020.568,527.955294921875Q1022.224,526.803294921875,1022.224,524.8592949218751Q1022.224,522.915294921875,1020.388,521.655294921875Q1018.552,520.395294921875,1014.52,519.531294921875Q1007.32,517.875294921875,1003.54,514.887294921875Q999.76,511.899294921875,999.76,507.003294921875Q999.76,501.099294921875,1004.008,497.679294921875Q1008.256,494.259294921875,1015.384,494.259294921875Q1020.928,494.259294921875,1025.1399999999999,496.851294921875Q1029.3519999999999,499.443294921875,1031.656,503.979294921875L1024.1680000000001,507.795294921875Q1022.584,505.059294921875,1020.28,503.547294921875Q1017.976,502.035294921875,1015.456,502.035294921875Q1012.504,502.035294921875,1010.812,503.259294921875Q1009.12,504.483294921875,1009.12,506.499294921875Q1009.12,508.299294921875,1011.136,509.595294921875Q1013.152,510.891294921875,1017.688,511.971294921875Q1031.656,515.067294921875,1031.656,524.139294921875Q1031.656,527.883294921875,1029.6399999999999,530.799294921875Q1027.624,533.715294921875,1024.024,535.299294921875Q1020.424,536.883294921875,1015.816,536.883294921875Z" fill="#5DCB7E" fill-opacity="1"/></g><g><path d="M747.28,590.390015258789L719.65,590.390015258789L719.65,595.655015258789L714.835,595.655015258789L714.835,585.890015258789L731.485,585.890015258789L730.045,581.885015258789L735.67,581.300015258789L737.38,585.890015258789L752.14,585.890015258789L752.14,595.7450152587891L747.28,595.7450152587891L747.28,590.390015258789ZM731.71,600.6950152587891Q729.46,599.2550152587891,722.125,595.2500152587891L724.06,591.3800152587891Q728.29,593.5850152587891,733.645,596.6000152587891L731.71,600.6950152587891ZM753.085,611.180015258789L738.55,611.180015258789L737.875,612.4850152587891L744.715,615.410015258789L752.86,618.8750152587891L750.655,623.3300152587891Q739.225,617.9750152587891,734.995,616.0850152587891Q732.295,618.515015258789,727.818,620.247515258789Q723.34,621.9800152587891,716.275,623.4650152587891L714.475,618.6050152587891Q722.395,617.2100152587891,726.648,615.477515258789Q730.9,613.7450152587891,732.88,611.180015258789L713.89,611.180015258789L713.89,606.680015258789L727.3,606.680015258789Q722.17,603.7100152587891,718.3,601.685015258789L720.235,597.8600152587891L722.35,598.9850152587891Q729.325,602.675015258789,730.765,603.530015258789L729.01,606.680015258789L734.815,606.680015258789Q735.31,604.5650152587891,735.4449999999999,600.3800152587891L735.49,598.535015258789L735.67,592.5050152587891L740.62,592.5050152587891Q740.62,594.6200152587891,740.44,599.1200152587891L740.395,601.055015258789Q740.35,604.1150152587891,739.855,606.680015258789L753.085,606.680015258789L753.085,611.180015258789ZM798.625,590.3450152587891L798.625,595.385015258789L794.26,595.385015258789L794.26,616.535015258789Q794.26,619.010015258789,793.63,620.3600152587891Q793,621.7100152587891,791.4929999999999,622.2725152587891Q789.985,622.8350152587891,787.15,622.8350152587891L781.345,622.8350152587891L780.355,617.7500152587891L785.8,617.7500152587891Q787.42,617.7500152587891,788.1179999999999,617.5475152587891Q788.815,617.3450152587891,789.063,616.805015258789Q789.31,616.265015258789,789.31,614.9600152587891L789.31,595.385015258789L776.62,595.385015258789L776.62,590.3450152587891L789.31,590.3450152587891L789.31,581.9750152587891L794.26,581.9750152587891L794.26,590.3450152587891L798.625,590.3450152587891ZM764.6949999999999,621.4850152587891L760.06,621.4850152587891L760.06,584.5850152587891L775.045,584.5850152587891L775.045,618.290015258789L764.6949999999999,618.290015258789L764.6949999999999,621.4850152587891ZM770.455,599.1200152587891L770.455,589.400015258789L764.6949999999999,589.400015258789L764.6949999999999,599.1200152587891L770.455,599.1200152587891ZM782.785,610.3250152587891Q781.705,608.165015258789,779.95,604.947515258789Q778.1949999999999,601.7300152587891,777.0699999999999,599.795015258789L781.03,597.5900152587891Q782.38,599.8400152587891,784.203,603.0125152587891Q786.025,606.185015258789,786.97,608.0750152587891L782.785,610.3250152587891ZM764.6949999999999,603.665015258789L764.6949999999999,613.4750152587891L770.455,613.4750152587891L770.455,603.665015258789L764.6949999999999,603.665015258789ZM830.17,581.6150152587891Q832.6,588.3200152587891,835.66,592.3925152587891Q838.72,596.4650152587891,843.94,600.155015258789L840.88,604.7450152587891Q835.39,600.4700152587891,831.858,595.587515258789Q828.325,590.7050152587891,825.76,583.1900152587891L830.17,581.6150152587891ZM821.08,584.045015258789Q816.13,596.1950152587891,806.14,605.1050152587891L803.035,600.6950152587891Q807.895,596.6000152587891,811.225,592.1900152587891Q814.5550000000001,587.780015258789,816.58,582.425015258789L821.08,584.045015258789ZM830.215,604.8800152587891Q832.375,607.895015258789,835.3679999999999,612.462515258789Q838.36,617.030015258789,840.745,620.8550152587891L836.47,623.510015258789L834.22,619.7300152587891L808.525,621.4850152587891L807.085,616.805015258789Q815.23,608.1200152587891,820.81,596.510015258789L825.76,598.3550152587891Q823.24,603.0800152587891,820.045,607.895015258789Q816.85,612.7100152587891,814.06,616.400015258789L831.4300000000001,615.275015258789Q828.37,610.4600152587891,826.21,607.400015258789L830.215,604.8800152587891ZM887.5,587.015015258789L887.5,591.9650152587891L849.4300000000001,591.9650152587891L849.4300000000001,587.015015258789L866.44,587.015015258789Q865.72,584.8550152587891,864.8199999999999,582.3800152587891L869.995,581.435015258789Q870.76,583.5050152587891,871.9300000000001,587.015015258789L887.5,587.015015258789ZM874.495,592.055015258789Q876.925,593.7200152587891,880.998,596.8250152587891Q885.0699999999999,599.930015258789,887.5899999999999,601.9550152587891L884.665,606.140015258789Q882.28,604.0700152587891,878.185,600.785015258789Q874.0899999999999,597.5000152587891,871.615,595.7000152587891L874.495,592.055015258789ZM865.0450000000001,595.4750152587891Q862.48,598.3550152587891,859.1279999999999,601.280015258789Q855.775,604.2050152587891,852.22,606.770015258789L849.385,602.4500152587891Q852.76,600.2450152587891,855.9100000000001,597.5900152587891Q859.06,594.935015258789,861.49,592.2350152587891L865.0450000000001,595.4750152587891ZM886.51,623.3750152587891Q880.255,621.7100152587891,875.9580000000001,619.9325152587891Q871.6600000000001,618.155015258789,868.4200000000001,615.8150152587891Q865.225,618.155015258789,860.905,620.0225152587891Q856.585,621.890015258789,850.5550000000001,623.645015258789L848.35,618.8300152587891Q853.8399999999999,617.4800152587891,857.8,615.972515258789Q861.76,614.4650152587891,864.64,612.5750152587891Q861.31,609.1100152587891,858.1600000000001,603.5750152587891L862.3,601.145015258789Q865.1800000000001,606.3650152587891,868.4200000000001,609.4700152587891Q871.615,606.3200152587891,874.135,601.1000152587891L878.635,603.260015258789Q875.71,608.930015258789,872.245,612.4850152587891Q875.2149999999999,614.3750152587891,879.085,615.7250152587891Q882.9549999999999,617.0750152587891,888.4449999999999,618.2000152587891L886.51,623.3750152587891Z" fill="url(#master_svg3_129_648)" fill-opacity="1"/></g></g><g clip-path="url(#master_svg4_129_684)"><g><g filter="url(#master_svg5_129_688)"><g mask="url(#master_svg6_129_690)"><g><g><rect x="716" y="280" width="170" height="170" rx="50" fill="#262626" fill-opacity="1" style="mix-blend-mode:passthrough"/></g><g mask="url(#master_svg7_129_699)"><g><g mask="url(#master_svg8_129_703)"><g><g><g><path d="M765.29945328125,395.747641015625C762.53411328125,393.254441015625,760.76611328125,389.673041015625,760.76611328125,385.68364101562497L760.76611328125,340.350441015625C760.76611328125,324.483701015625,776.99541328125,322.217041015625,797.03271328125,322.217041015625C817.07011328125,322.217041015625,833.29951328125,324.483701015625,833.29951328125,340.350441015625L833.29951328125,355.083141015625L824.23271328125,355.083141015625L824.23271328125,340.350441015625L769.83277328125,340.350441015625L769.83277328125,363.017041015625L807.12371328125,363.017041015625Q807.45521328125,363.513641015625,807.92441328125,363.982841015625L811.49141328125,367.549741015625L807.92441328125,371.116741015625Q805.46131328125,373.580041015625,806.79431328125,376.798241015625Q808.12741328125,380.016541015625,811.61071328125,380.016541015625L821.96641328125,380.016541015625L821.96631328125,395.88314101562503L820.83271328125,395.88314101562503Q820.42691328125,395.88314101562503,820.02451328125,395.924441015625Q817.01351328125,396.233041015625,814.96531328125,398.485141015625Q814.61271328125,398.872941015625,814.32031328125,399.283641015625L778.89951328125,399.283641015625L778.89951328125,403.817041015625C778.89951328125,406.310441015625,776.85941328125,408.350441015625,774.36611328125,408.350441015625L769.83277328125,408.350441015625C767.33945328125,408.350441015625,765.29945328125,406.310441015625,765.29945328125,403.817041015625L765.29945328125,395.747641015625ZM819.66041328125,408.349741015625C818.31931328125,408.311041015625,819.56351328125,406.245141015625,820.91551328125,404.000341015625C821.97461328125,402.241641015625,823.10001328125,400.373141015625,823.10001328125,399.283641015625L820.76081328125,399.283641015625C820.78481328125,399.283341015625,820.80871328125,399.283141015625,820.83271328125,399.283141015625L825.36611328125,399.283141015625L825.36611328125,397.500741015625L825.36631328125,397.469741015625L825.36631328125,378.429741015625L825.36611328125,378.398641015625L825.36611328125,376.616541015625L811.61071328125,376.616541015625C809.99521328125,376.616541015625,809.18621328125,374.663241015625,810.32861328125,373.521041015625L815.01751328125,368.832041015625C815.02361328125,368.825941015625,815.02981328125,368.819641015625,815.03591328125,368.813341015625L816.29951328125,367.549741015625L815.03591328125,366.286341015625Q815.02671328125,366.276841015625,815.01751328125,366.26764101562503L811.76701328125,363.017041015625L824.23271328125,363.017041015625L824.23271328125,358.483141015625L833.29951328125,358.483141015625L833.29951328125,385.68364101562497C833.29951328125,389.673041015625,831.53151328125,393.254441015625,828.76611328125,395.747641015625L828.76611328125,403.817041015625C828.76611328125,406.286441015625,826.76491328125,408.311341015625,824.30411328125,408.349741015625L819.66041328125,408.349741015625ZM769.83277328125,383.417041015625C769.83277328125,387.179641015625,772.87011328125,390.217041015625,776.63281328125,390.217041015625C780.39551328125,390.217041015625,783.43271328125,387.179641015625,783.43271328125,383.417041015625C783.43271328125,379.654441015625,780.39551328125,376.617041015625,776.63281328125,376.617041015625C772.87011328125,376.617041015625,769.83277328125,379.654441015625,769.83277328125,383.417041015625Z" fill-rule="evenodd" fill="#5D7E5D" fill-opacity="1" style="mix-blend-mode:passthrough"/></g></g><g><g><path d="M820.3710453125,399.306654296875C818.0926353125,399.540054296875,816.2998153125,401.479054296875,816.2998153125,403.816554296875L816.2998153125,406.536554296875C816.2998153125,407.538054296875,817.1116653125,408.349754296875,818.1131353125,408.349754296875L841.6864453125,408.349754296875C842.6775453125,408.349754296875,843.4830453125,407.554654296875,843.4995453125,406.567654296875L843.4995453125,403.816554296875C843.4995453125,401.51065429687503,841.7547453125,399.592554296875,839.5203453125,399.317154296875C839.3574453125,399.297054296875,839.1920453125,399.285754296875,839.0246453125,399.283454296875C839.0052453125,399.283354296875,838.9858453125,399.283154296875,838.9664453125,399.283154296875L834.4329453125,399.283154296875L834.4329453125,376.616554296875L842.7486453125,376.616554296875C843.2210453125,376.616554296875,843.6742453125,376.432254296875,844.0125453125,376.103454296875L851.3026453125,368.813354296875C851.9862453125,368.110084296875,851.9862453125,366.989584296875,851.3026453125,366.286324296875L844.0125453125,358.996110296875C843.6742453125,358.667405296875,843.2210453125,358.483154296875,842.7486453125,358.483154296875L811.6109053125,358.483154296875C809.9954083125,358.483154296875,809.1863543125,360.436364296875,810.3286903125,361.578704296875L815.0175853125,366.267604296875C815.0237753125,366.273784296875,815.0298953125,366.280004296875,815.0359753125,366.286254296875L816.2995353125,367.549814296875L815.0359653125,368.813454296875C815.0298953125,368.819654296875,815.0237553125,368.825854296875,815.0175853125,368.832054296875L810.3286903125,373.520954296875C809.1863543125,374.663254296875,809.9954083125,376.616554296875,811.6109253125,376.616554296875L825.3662453125,376.616554296875L825.3662453125,378.398654296875C825.3663453125,378.409054296875,825.3664453125,378.419354296875,825.3664453125,378.429754296875L825.3664453125,397.469754296875L825.3662453125,397.500854296875L825.3662453125,399.283154296875L820.8328453125,399.283154296875C820.6770453125,399.283154296875,820.5229453125,399.291154296875,820.3710453125,399.306654296875Z" fill-rule="evenodd" fill="#5DCB7E" fill-opacity="1" style="mix-blend-mode:passthrough"/></g></g></g></g></g></g></g></g></g></g></g></g></svg>